<svg width="226" height="6" viewBox="0 0 226 6" fill="none" xmlns="http://www.w3.org/2000/svg">
<path d="M223.762 4.0821C223.644 3.5518 220.764 3.69984 220.087 3.70647C218.373 3.86114 216.446 3.56064 214.782 3.79927C213.557 3.9893 212.47 4.23014 211.191 4.20805C210.119 3.76613 208.958 4.29643 207.93 4.13513C207.219 4.05117 206.542 3.6667 205.816 3.828C205.628 3.82117 205.445 3.7979 205.278 3.7595C205.134 3.77718 205.065 3.82358 204.882 3.58715C204.388 3.79265 203.267 3.5739 202.773 3.58715C202.451 3.54864 202.112 3.54582 201.787 3.57893C201.462 3.61204 201.159 3.68008 200.906 3.77718C200.293 3.9429 200.022 4.27434 199.251 3.9672C198.757 4.18816 196.781 4.17048 196.287 3.91859C196.006 3.57169 196.169 3.69763 196.04 3.57832C195.912 3.459 195.546 3.26897 195.186 3.28444C194.617 3.13511 193.975 3.05056 193.316 3.03823C192.657 3.0259 192.001 3.08617 191.407 3.21373C189.925 2.99278 188.161 2.80717 186.724 3.17617C186.23 3.17617 186.205 3.29991 185.686 3.6667C185.296 4.08431 184.827 3.64018 184.412 3.7131C183.541 3.69278 182.668 3.7098 181.804 3.76392C181.176 4.02244 181.142 3.95394 180.381 4.09094C178.771 4.2213 177.131 4.04896 175.599 4.18816C174.611 4.31411 173.367 4.0821 172.329 4.21468C171.01 4.95931 169.084 3.80811 168.086 4.46657C167.73 4.68753 167.523 5.03885 167.009 4.82673C166.708 4.77591 166.411 4.97035 166.115 5.03443C164.979 5.09188 164.342 4.60356 163.26 4.83557C162.741 4.39365 162.213 4.72509 161.694 4.83557C161.002 4.93279 160.074 4.86209 159.407 4.85546C158.913 5.10293 158.602 4.97035 158.024 5.18468C157.574 5.31284 157.115 5.07642 156.655 5.2112C155.351 5.25318 154.003 4.73835 152.674 5.07862C151.647 5.33265 150.488 5.45929 149.315 5.44542C149.473 4.80022 145.289 5.54927 144.405 5.08304C143.046 4.76486 141.722 5.37029 140.389 5.36587C139.252 5.95583 138.156 5.2355 136.98 5.46088C136.63 5.52675 136.247 5.54979 135.87 5.52766C135.493 5.50553 135.137 5.43902 134.836 5.33494C134.411 5.15154 134.644 5.19131 134.164 5.20899C134.031 4.62345 133.779 5.13828 133.626 5.20899C132.9 4.92837 132.06 5.35482 131.354 5.19794C130.835 5.38134 130.43 5.24876 129.99 5.52275C129.19 5.42111 128.37 5.76139 127.427 5.8343C126.098 5.82105 124.779 5.673 123.524 5.93594C122.477 6.1569 121.321 5.73708 120.303 5.71499C119.745 5.47635 119.617 5.61113 119.148 5.53601C118.886 5.57357 118.654 5.20236 118.382 5.45646C118.052 5.5337 117.685 5.57405 117.312 5.57405C116.94 5.57405 116.573 5.5337 116.243 5.45646C115.561 5.07862 114.835 5.6266 114.158 5.46972C113.378 6.1326 112.736 5.24876 111.975 5.20015C110.582 5.33936 109.075 5.43879 107.672 5.20015C107.104 5.27528 106.418 5.17143 105.869 5.17364C105.321 5.17585 105.207 4.90407 104.753 4.74719C103.814 4.36493 102.155 5.03222 101.103 4.7052C100.569 4.8665 100.268 4.37156 99.6898 4.57705C98.7018 4.42017 98.7907 4.51297 98.0498 4.25003C97.2248 3.82579 95.5799 4.16165 94.745 4.29201C94.0782 4.69416 93.7571 4.47983 93.4656 4.60135C93.1594 4.65438 93.1347 4.89523 92.5518 5.14712C92.0578 5.19352 91.6577 5.70615 91.0007 5.58904C90.2449 5.82767 89.7608 5.4653 89.1927 5.46972C88.2986 5.01455 86.9303 5.39901 85.9819 5.45867C84.6728 5.58462 83.3588 5.37913 82.03 5.45867C81.1063 5.1891 80.1776 5.441 79.2489 5.45867C78.755 5.42553 77.767 5.57578 77.7966 5.22667C76.8433 5.04106 75.7466 5.14049 74.7784 5.18689C74.6994 4.92395 74.8624 4.66985 74.7389 4.60135C73.8349 4.80022 72.9705 4.15944 72.0319 4.32295C71.37 4.25887 70.6982 4.66101 70.056 4.32295C68.5444 4.21689 67.0279 4.52181 65.5163 4.32295C65.014 4.29765 64.518 4.25179 64.0344 4.18595C63.2539 4.04233 62.7649 3.66007 61.851 3.94732C61.0162 3.85672 60.1913 4.07547 59.3811 4.01139C58.3932 4.01139 58.7241 3.82579 58.0276 3.81253C57.5337 3.51203 56.5457 3.96499 55.9974 3.81253C55.0786 4.25445 54.145 3.54738 53.2262 3.81253C52.4358 3.94732 52.3815 3.9208 51.7837 4.18595C51.1811 4.00256 50.3018 4.31632 49.6004 4.44226C48.8001 4.68532 48.1678 4.35609 47.3725 4.59473C46.839 4.51739 46.6315 4.92395 46.1079 4.61019C45.7276 4.63671 45.5843 4.51297 45.2583 4.27434C44.9125 3.7816 44.7643 4.04012 44.3395 4.18816C43.8109 4.07768 43.2873 4.3119 42.7588 4.18816C42.1709 4.44447 41.5782 3.83463 40.9854 4.18816C40.4173 4.00256 39.5034 4.20805 39.0095 4.20142C38.5155 4.31632 38.2043 4.24561 37.6856 3.90312C37.078 3.75729 36.8014 3.49214 36.1493 3.90312C34.9805 4.16866 33.7644 4.39038 32.5137 4.566C31.4714 4.41575 30.4291 4.78696 29.3868 4.566C28.4828 4.45331 27.7863 5.01897 26.9169 4.69416C26.1957 4.73172 25.4646 4.61903 24.7384 4.69416C24.0419 4.63892 23.3454 4.41796 22.6538 4.69416C22.1895 4.69416 21.4387 4.55495 21.0385 4.81126C19.8925 5.33052 19.196 5.37913 17.9462 5.46088C17.3238 5.49182 16.6915 5.73929 16.079 5.48961C15.585 5.24434 15.091 5.58904 14.5971 5.71057C13.3918 5.89838 11.9444 5.78569 11.2232 5.33273C10.2896 4.78254 9.02498 4.81126 7.54305 4.83336C6.83666 5.05432 6.26858 4.69858 5.59183 4.7052C5.4387 4.93721 5.16701 4.82231 5.02376 4.71625C4.75207 4.69637 4.80147 4.67206 4.594 4.53507C3.49737 4.16828 2.36616 4.09315 1.39796 4.70741C1.39796 4.69416 1.05217 3.89429 0.701449 3.39271C0.350725 2.77403 0 2.13546 0 2.06696C0.839763 2.31001 1.67459 2.78728 2.56375 2.83369C3.05773 2.74088 4.18894 3.05464 4.68291 2.83369C5.46834 2.76519 5.96726 2.37409 6.68847 2.64587C7.44919 2.46468 8.2198 2.34537 8.96077 2.66134C9.76595 2.81159 10.3143 3.64018 11.1935 3.2049C12.4927 3.21815 13.293 3.28002 14.3204 3.68217C15.3479 4.08431 17.0324 3.66449 18.2377 3.40376C19.3343 3.34189 20.5001 3.01487 21.6511 3.3441C22.807 3.21152 23.9481 3.25572 25.0002 3.15408C26.2253 2.66355 27.4306 2.44259 28.8286 2.60168C30.108 2.71437 31.2342 2.96626 32.5482 2.57295C33.1558 2.93754 33.6152 2.59063 34.2228 2.45806C35.5147 2.36356 36.7918 2.23219 38.0462 2.06475C39.0638 1.92555 39.6319 1.28035 40.6001 1.34001C41.3213 0.73016 42.1413 1.60516 42.8773 1.34001C43.638 1.51456 44.216 1.27151 45.0113 1.06381C45.6831 1.39304 46.4142 0.93786 47.091 1.07706C48.4148 1.03287 50.3611 0.895878 51.5368 1.22732C51.9122 1.05939 52.1345 1.08148 52.5593 1.55875C53.0878 1.55875 53.7597 1.26488 54.303 1.57422C54.9847 1.57422 55.2614 2.01614 55.9085 1.83274C56.2147 2.0537 56.5012 1.85263 56.8124 1.85042C56.9557 1.85042 57.2274 1.65598 57.4497 2.11336C57.9931 2.12662 58.7488 1.8924 59.3317 2.29676C59.8257 2.45585 60.2654 2.75856 60.7692 2.41828C61.3768 2.1465 61.5349 1.77087 62.2511 1.95427C62.4758 1.98231 62.685 2.03098 62.8653 2.09718C63.0456 2.16337 63.1931 2.24564 63.2984 2.33874C64.0146 2.83368 65.0668 2.38735 65.9263 2.45364C67.6355 2.62819 69.3546 2.85578 71.0637 2.45364C71.4984 2.52876 71.8393 2.43596 72.2542 2.50225C72.8816 2.82927 72.847 2.65692 73.5484 2.84252C74.7241 2.81159 75.9541 2.40061 77.1545 2.70111C77.8115 3.14303 78.3697 2.73867 79.0464 2.83148C79.1281 2.78924 79.2307 2.75609 79.346 2.73465C79.4613 2.7132 79.5862 2.70404 79.7108 2.7079C79.8354 2.71176 79.9562 2.72853 80.0638 2.75688C80.1714 2.78523 80.2628 2.82438 80.3308 2.87125C80.7951 3.07895 80.5926 3.22478 80.8544 3.43911C81.299 3.67112 82.8698 3.72415 83.6849 3.58053C84.416 3.1143 85.1668 3.31317 85.8781 3.58053C86.9451 3.77718 87.7355 3.65123 88.6296 3.30433C89.1581 2.60389 89.4002 3.11872 89.9633 2.95079C90.4919 3.09 90.8327 2.58842 91.302 2.66797C92.1121 2.36746 93.1445 2.68785 94.2214 2.29013C95.2983 2.16639 96.4147 1.99404 97.3878 2.32769C98.603 2.22163 99.8577 2.40724 101.004 2.45143C101.592 2.80938 101.562 2.71216 102.199 2.57074C102.696 2.60911 103.172 2.68934 103.602 2.80717C104.462 2.36525 105.553 2.49341 106.457 2.82927C107.327 2.67901 108.211 2.81159 109.075 2.82927C110.246 3.00603 111.511 2.63924 112.77 2.584C114.035 2.87346 115.29 3.02592 116.436 2.82043C116.791 3.09 117.028 2.9287 117.345 3.17175C117.414 2.95079 117.913 3.39271 117.952 3.42806C118.663 3.70205 119.345 3.32421 120.007 3.33526C120.896 3.21152 121.617 3.5739 122.418 3.07232C123.133 2.92455 123.782 2.72019 124.334 2.4691C125.103 2.42167 125.886 2.47302 126.592 2.61715C126.899 2.64895 127.22 2.64317 127.521 2.6004C127.822 2.55764 128.091 2.47947 128.301 2.37409C128.652 2.0537 128.657 1.93217 129.161 2.24152C129.684 2.03382 130.218 2.94195 130.736 2.71658C131.448 2.91544 132.307 2.72983 133.083 2.80275C134.135 2.68343 135.222 2.1686 136.318 2.68343C137.415 2.81159 138.512 2.52876 139.588 2.70553C140.023 2.34979 140.952 3.02592 141.312 2.70553C141.673 2.85357 141.653 2.85357 142.029 3.21152C142.404 3.79927 143.17 3.79265 143.634 3.32863C144.229 3.3436 144.823 3.29828 145.373 3.19606C146.178 2.71216 147.003 3.16733 147.808 3.1828C148.552 3.13837 149.305 3.22557 149.908 3.42585C151.054 3.64681 151.706 3.30654 152.575 3.03255C153.069 2.69448 153.163 2.87567 153.756 2.76077C154.146 2.47794 154.477 2.74751 154.877 2.46468C155.564 2.58179 156.458 2.12883 157.179 2.4448C157.89 2.32769 158.32 2.53097 158.952 2.57958C159.402 2.51109 159.644 2.85357 159.99 2.41607C160.553 1.97416 160.558 2.74309 161.235 2.19511C162.084 2.61273 162.978 2.19511 163.833 2.19511C164.263 1.95648 164.757 2.28792 165.181 2.19511C165.863 2.14871 165.542 2.27466 166.071 2.41607C166.708 2.73204 167.325 3.01929 168.15 2.56853C168.758 2.84252 169.365 2.67239 169.968 2.56853C170.462 2.50667 170.956 2.59726 171.41 2.54644C171.845 2.70995 172.27 2.39177 172.744 2.27908C173.209 1.97195 173.707 2.33653 174.172 2.1465C175.002 2.27245 175.619 1.74215 176.444 1.58969C177.269 1.01962 178.183 1.56759 179.028 1.54771C179.694 1.28919 180.179 1.60958 180.85 1.21406C181.265 1.8239 181.675 1.07927 182.071 1.1323C182.327 1.16103 182.604 0.61747 182.895 0.926812C183.147 0.743417 183.449 1.27151 183.711 0.9467C184.526 0.993101 184.787 0.957747 185.405 0.560022C186.714 0.204279 188.245 -0.268573 189.851 0.188812C190.695 0.104847 191.535 0.217536 192.38 0.188812C193.531 -0.0321469 194.677 0.261728 195.838 0.188812C196.989 -0.00784159 198.135 0.188812 199.296 0.188812C199.977 0.279405 200.442 0.409769 201.059 0.316966C201.553 0.416398 202.047 0.113684 202.541 0.316966C203.41 0.18881 204.626 0.0805411 205.362 0.67492C205.683 0.895878 205.767 1.14556 206.048 0.968795C206.226 0.831801 206.404 0.968794 206.582 1.20301C206.878 1.51898 207.007 1.71122 206.972 1.58969C207.901 2.00509 210.494 1.62283 211.912 1.85705C212.954 1.93659 213.982 2.07801 215.098 1.94322C215.725 1.75099 216.041 2.11999 216.614 2.18186C217.42 2.25698 218.412 2.0073 219.237 2.20395C220.379 2.3078 221.495 1.92775 222.616 2.14208C223.738 2.15976 224.859 2.26582 226 2.07801C226 2.18628 223.762 3.99372 223.762 4.0821Z" fill="#FF5348"/>
</svg>
